<svg width="134" height="21" fill="none" xmlns="http://www.w3.org/2000/svg"><path d="M15.078 1.781V3.5l-1.523.293V16h-2.842L4.97 6.43l-.059.01v7.558l1.524.293V16H.546v-1.709l1.515-.293V3.793L.547 3.5V1.781h4.365l5.742 9.57.059-.01V3.794L9.189 3.5V1.781h5.889zm6.045 14.424c-1.523 0-2.74-.488-3.652-1.465-.912-.976-1.367-2.217-1.367-3.72v-.391c0-1.57.43-2.861 1.289-3.877.866-1.016 2.024-1.52 3.476-1.514 1.426 0 2.533.43 3.32 1.29.788.859 1.182 2.02 1.182 3.486v1.552h-6.308l-.02.059c.052.697.283 1.27.693 1.719.417.449.98.674 1.69.674.631 0 1.155-.062 1.572-.186.417-.13.872-.332 1.367-.605l.772 1.757c-.436.345-1.003.635-1.7.87-.69.234-1.461.351-2.314.351zm-.254-8.77c-.527 0-.944.202-1.25.606-.306.404-.495.934-.566 1.592l.029.049h3.496v-.254c0-.606-.143-1.088-.43-1.446-.28-.364-.706-.546-1.279-.546zm20.918-.283l-1.064.137L38.516 16h-2.383L34.17 9.71h-.059L32.148 16h-2.373L27.56 7.29l-1.065-.138V5.434h4.785v1.718l-1.123.215.996 4.834h.059l1.973-6.767h1.914l1.992 6.787h.058l.987-4.844-1.133-.225V5.434h4.785v1.718zm9.6 1.914h-1.914l-.303-1.318a2.487 2.487 0 00-.742-.39 2.899 2.899 0 00-.977-.157c-.501 0-.898.114-1.191.342-.293.221-.44.501-.44.84 0 .319.14.586.42.8.28.209.84.394 1.68.557 1.308.26 2.279.645 2.91 1.153.632.5.947 1.194.947 2.08 0 .95-.41 1.728-1.23 2.334-.814.599-1.888.898-3.223.898a6.885 6.885 0 01-2.246-.351 5.813 5.813 0 01-1.806-1.026l-.03-2.373h1.992l.391 1.377c.17.143.4.25.693.322.293.065.6.098.918.098.58 0 1.02-.104 1.319-.313a.976.976 0 00.459-.85c0-.312-.153-.582-.46-.81-.305-.228-.869-.43-1.689-.605-1.243-.254-2.184-.628-2.822-1.123-.632-.502-.947-1.182-.947-2.041 0-.886.364-1.647 1.094-2.285.729-.645 1.767-.967 3.115-.967.82 0 1.595.11 2.324.332.736.221 1.312.504 1.728.85l.03 2.626zm10.781.684h-4.815v4.063h4.59l.127-1.7h2.168V16h-11.25v-1.709l1.514-.293V3.793L52.988 3.5V1.781H64.22v3.897h-2.19l-.127-1.7h-4.55v3.575h4.814V9.75zm3.36 4.541l.986-.156 2.87-3.477-2.773-3.34-.986-.166V5.434h4.756v1.65l-.967.117 1.602 2.031 1.572-2.03-.986-.118v-1.65h4.775v1.718l-.957.166-2.715 3.34 2.861 3.477.996.156V16h-4.834v-1.64l.967-.118-1.64-2.129-1.67 2.139.85.107V16h-4.708v-1.709zm11.728-7.139V5.434h4.14l.137 1.23a3.388 3.388 0 011.123-1.055c.436-.247.944-.37 1.524-.37 1.308 0 2.324.51 3.047 1.532.722 1.023 1.084 2.367 1.084 4.034v.205c0 1.562-.362 2.819-1.084 3.77-.723.95-1.732 1.425-3.028 1.425-.553 0-1.045-.1-1.474-.303a3.075 3.075 0 01-1.104-.908v3.057l1.377.293v1.718h-5.596v-1.718l1.377-.293V7.445l-1.523-.293zm8.203 3.653c0-.996-.166-1.804-.498-2.422-.332-.619-.84-.928-1.523-.928-.43 0-.798.088-1.104.264-.3.176-.537.426-.713.752V13.1c.176.3.413.527.713.683.306.157.68.235 1.123.235.69 0 1.195-.27 1.514-.811.325-.54.488-1.273.488-2.197v-.205zm3.623-8.32V.764h4.375v13.233l1.377.293V16h-5.606v-1.709l1.378-.293V2.778l-1.524-.294zm6.494 8.134c0-1.575.44-2.864 1.319-3.867.885-1.01 2.106-1.514 3.662-1.514 1.562 0 2.783.502 3.662 1.504.885 1.003 1.328 2.295 1.328 3.877v.205c0 1.589-.443 2.884-1.328 3.887-.879.996-2.093 1.494-3.643 1.494-1.569 0-2.796-.498-3.681-1.494-.88-1.003-1.319-2.298-1.319-3.887v-.205zm2.852.205c0 .964.169 1.739.508 2.324.338.58.885.87 1.64.87.736 0 1.273-.293 1.612-.88.345-.585.517-1.357.517-2.314v-.205c0-.937-.172-1.702-.517-2.295-.346-.592-.889-.888-1.631-.888-.743 0-1.283.296-1.621.888-.339.593-.508 1.358-.508 2.295v.205zm8.574 3.467l1.367-.293V7.445l-1.514-.293V5.434h4.17l.127 1.543c.248-.547.567-.974.957-1.28a2.14 2.14 0 011.358-.459c.15 0 .306.013.469.04.169.019.309.045.419.077l-.302 2.598-1.172-.03c-.417 0-.762.082-1.035.245a1.573 1.573 0 00-.625.693v5.137l1.367.293V16h-5.586v-1.709zm13.066 1.914c-1.523 0-2.741-.488-3.652-1.465-.911-.976-1.367-2.217-1.367-3.72v-.391c0-1.57.43-2.861 1.289-3.877.866-1.016 2.025-1.52 3.476-1.514 1.426 0 2.533.43 3.321 1.29.788.859 1.181 2.02 1.181 3.486v1.552h-6.308l-.02.059c.052.697.283 1.27.694 1.719.416.449.979.674 1.689.674.632 0 1.156-.062 1.572-.186.417-.13.873-.332 1.368-.605l.771 1.757c-.436.345-1.003.635-1.699.87-.69.234-1.462.351-2.315.351zm-.254-8.77c-.527 0-.944.202-1.25.606-.306.404-.494.934-.566 1.592l.029.049h3.496v-.254c0-.606-.143-1.088-.429-1.446-.28-.364-.707-.546-1.28-.546zm6.075 6.856l1.367-.293V7.445l-1.514-.293V5.434h4.17l.127 1.543c.247-.547.566-.974.957-1.28a2.14 2.14 0 011.358-.459c.149 0 .306.013.468.04.17.019.31.045.42.077l-.303 2.598-1.171-.03c-.417 0-.762.082-1.036.245a1.585 1.585 0 00-.625.693v5.137l1.368.293V16h-5.586v-1.709z" fill="#1A1B22"/></svg>